# xmcd CD database file
#
# Track frame offsets:
#	150
#	17307
#	37875
#	55032
#
# Disc length: 1007 seconds
#
# Revision: 0
# Processed by: cddbd v1.5PL3 Copyright (c) Steve Scherf et al.
# Submitted via: CDex 1.51
#
DISCID=1e03ed04
DTITLE=hiro - Notice my mind
DYEAR=2002
DGENRE=JPop
TTITLE0=Notice my mind
TTITLE1=more close, more feel
TTITLE2=Notice my mind (instrumental)
TTITLE3=more close, more feel (instrumental)
EXTD=YEAR: 2002
EXTT0=
EXTT1=
EXTT2=
EXTT3=
PLAYORDER=
